<svg xmlns="http://www.w3.org/2000/svg" viewBox="0 0 120 120" role="img" aria-label="Girl avatar"><rect width="120" height="120" rx="60" fill="#FCE4EC"/><path d="M28 120c5-20 20-32 32-32s27 12 32 32" fill="#EC407A"/><circle cx="60" cy="56" r="25" fill="#F1C27D"/><path d="M28 54c3-24 16-40 32-40s29 16 32 40c-4-14-16-22-32-22S32 40 28 54Z" fill="#6D4C41"/><path d="M30 58c3 18 9 30 14 34 2-10 7-16 16-16s14 6 16 16c5-4 11-16 14-34-5 8-14 14-30 14S35 66 30 58Z" fill="#6D4C41"/><circle cx="50" cy="58" r="2.6" fill="#2a2a2a"/><circle cx="70" cy="58" r="2.6" fill="#2a2a2a"/><path d="M54 70c2.5 3 8 3 11 0" fill="none" stroke="#C47A5A" stroke-width="1.8" stroke-linecap="round"/><path d="M44 50c3-1.5 6-1.5 8 0M68 50c3-1.5 6-1.5 8 0" fill="none" stroke="#6D4C41" stroke-width="1.5" stroke-linecap="round"/><path d="M48 61c1.5 1.5 4 1.5 5.5 0M66.5 61c1.5 1.5 4 1.5 5.5 0" fill="none" stroke="#F48FB1" stroke-width="1.8" stroke-linecap="round"/><circle cx="42" cy="42" r="3.5" fill="#F48FB1"/><circle cx="78" cy="42" r="3.5" fill="#F48FB1"/></svg>