<svg xmlns="http://www.w3.org/2000/svg" viewBox="0 0 120 120" role="img" aria-label="Girl avatar"><rect width="120" height="120" rx="60" fill="#E0F2F1"/><path d="M28 120c5-20 20-32 32-32s27 12 32 32" fill="#00897B"/><circle cx="60" cy="56" r="25" fill="#C68642"/><path d="M28 52c3-22 16-38 32-38s29 16 32 38c-5-12-16-20-32-20S33 40 28 52Z" fill="#212121"/><path d="M32 58c2 18 8 30 13 34 2-10 7-16 15-16s13 6 15 16c5-4 11-16 13-34-5 8-14 14-28 14S37 66 32 58Z" fill="#212121"/><circle cx="50" cy="58" r="2.6" fill="#111"/><circle cx="70" cy="58" r="2.6" fill="#111"/><path d="M54 70c2.5 3 8 3 11 0" fill="none" stroke="#8B5A2B" stroke-width="1.8" stroke-linecap="round"/><path d="M44 50c3-1.2 6-1.2 8 0M68 50c3-1.2 6-1.2 8 0" fill="none" stroke="#212121" stroke-width="1.5" stroke-linecap="round"/><path d="M48 61c1.5 1.5 4 1.5 5.5 0M66.5 61c1.5 1.5 4 1.5 5.5 0" fill="none" stroke="#EF9A9A" stroke-width="1.8" stroke-linecap="round"/><circle cx="40" cy="44" r="2.8" fill="#FF80AB"/><circle cx="80" cy="44" r="2.8" fill="#FF80AB"/></svg>